<svg width="60" height="60" viewBox="0 0 60 60" fill="none" xmlns="http://www.w3.org/2000/svg">
<rect width="60" height="60" rx="10" fill="#27187E"/>
<mask id="mask0_149_3" style="mask-type:alpha" maskUnits="userSpaceOnUse" x="13" y="13" width="35" height="35">
<rect x="13" y="13" width="35" height="35" fill="#D9D9D9"/>
</mask>
<g mask="url(#mask0_149_3)">
<path d="M29.0417 34.875H31.9584V30.5H36.3334V27.5833H31.9584V23.2083H29.0417V27.5833H24.6667V30.5H29.0417V34.875ZM24.6667 43.625V40.7083H18.8334C18.0313 40.7083 17.3447 40.4227 16.7735 39.8516C16.2023 39.2804 15.9167 38.5938 15.9167 37.7917V20.2917C15.9167 19.4896 16.2023 18.803 16.7735 18.2318C17.3447 17.6606 18.0313 17.375 18.8334 17.375H42.1667C42.9688 17.375 43.6555 17.6606 44.2266 18.2318C44.7978 18.803 45.0834 19.4896 45.0834 20.2917V37.7917C45.0834 38.5938 44.7978 39.2804 44.2266 39.8516C43.6555 40.4227 42.9688 40.7083 42.1667 40.7083H36.3334V43.625H24.6667Z" fill="#F1F2F6"/>
</g>
</svg>
