<svg width="60" height="60" viewBox="0 0 60 60" fill="none" xmlns="http://www.w3.org/2000/svg">
<rect width="60" height="60" rx="10" fill="#27187E"/>
<mask id="mask0_149_4" style="mask-type:alpha" maskUnits="userSpaceOnUse" x="13" y="13" width="35" height="35">
<rect x="13" y="13" width="35" height="35" fill="#D9D9D9"/>
</mask>
<g mask="url(#mask0_149_4)">
<path d="M31.8491 29.1146L25.6512 22.9167L27.7293 20.875L31.8491 24.9948L40.1252 16.7552L42.1668 18.7969L31.8491 29.1146ZM33.4168 45.8125L23.2085 42.9688V29.0417H26.0522L35.0939 32.3958C35.896 32.6875 36.5462 33.1979 37.0444 33.9271C37.5427 34.6562 37.7918 35.4583 37.7918 36.3333H34.8752C33.8543 36.3333 33.0522 36.2969 32.4689 36.224C31.8856 36.151 31.3752 36.0417 30.9377 35.8958L28.021 34.9479L27.5835 36.3333L29.8804 37.1719C30.5609 37.4392 31.1807 37.6094 31.7397 37.6823C32.2988 37.7552 32.955 37.7917 33.7085 37.7917H40.7085C42.3127 37.7917 43.4429 38.053 44.0991 38.5755C44.7554 39.0981 45.0835 39.809 45.0835 40.7083V42.1667L33.4168 45.8125ZM14.4585 45.0833V29.0417H20.2918V45.0833H14.4585Z" fill="#F1F2F6"/>
</g>
</svg>
